<?xml version="1.0" encoding="UTF-8" standalone="no"?>
<!-- Created with Inkscape (http://www.inkscape.org/) -->

<svg
   xmlns:dc="http://purl.org/dc/elements/1.1/"
   xmlns:cc="http://creativecommons.org/ns#"
   xmlns:rdf="http://www.w3.org/1999/02/22-rdf-syntax-ns#"
   xmlns:svg="http://www.w3.org/2000/svg"
   xmlns="http://www.w3.org/2000/svg"
   xmlns:sodipodi="http://sodipodi.sourceforge.net/DTD/sodipodi-0.dtd"
   xmlns:inkscape="http://www.inkscape.org/namespaces/inkscape"
   width="210mm"
   height="297mm"
   viewBox="0 0 744.09448819 1052.3622047"
   id="svg5903"
   version="1.1"
   inkscape:version="0.91 r13725"
   sodipodi:docname="capeman.svg">
  <defs
     id="defs5905" />
  <sodipodi:namedview
     id="base"
     pagecolor="#ffffff"
     bordercolor="#666666"
     borderopacity="1.0"
     inkscape:pageopacity="0.0"
     inkscape:pageshadow="2"
     inkscape:zoom="2.8"
     inkscape:cx="326.21482"
     inkscape:cy="924.4423"
     inkscape:document-units="px"
     inkscape:current-layer="layer1"
     showgrid="false"
     inkscape:window-width="1457"
     inkscape:window-height="777"
     inkscape:window-x="52"
     inkscape:window-y="52"
     inkscape:window-maximized="0" />
  <metadata
     id="metadata5908">
    <rdf:RDF>
      <cc:Work
         rdf:about="">
        <dc:format>image/svg+xml</dc:format>
        <dc:type
           rdf:resource="http://purl.org/dc/dcmitype/StillImage" />
        <dc:title></dc:title>
      </cc:Work>
    </rdf:RDF>
  </metadata>
  <g
     inkscape:label="Layer 1"
     inkscape:groupmode="layer"
     id="layer1">
    <g
       id="g6674"
       transform="translate(-24.243661,24.748737)">
      <path
         id="path6627-9"
         style="fill:none;fill-rule:evenodd;stroke:#000000;stroke-width:1px;stroke-linecap:butt;stroke-linejoin:miter;stroke-opacity:1"
         d="m 86.339829,104.35708 c 0,0 2.72896,16.13936 2.476422,22.20028 -0.252538,6.06091 -0.757614,28.03173 -1.262691,29.7995 -0.505076,1.76776 2.103246,4.04432 1.345632,9.09509 l -1.093093,5.29958 c 0,0 2.272843,15.15229 1.767766,21.2132 -0.505076,6.06092 -1.515228,12.87945 -1.26269,15.90991 0.252538,3.03045 1.415092,5.78224 0.883883,6.31345 0,0 -0.253541,7.2415 -0.505076,8.71256 -0.792878,4.63703 -0.444674,11.2497 -4.419417,12.87945 -4.126513,-1.92915 -5.763338,-5.0867 -5.555839,-9.21764 0.179325,-3.57004 0.758368,-10.60811 0,-12.12183 -0.758821,-1.51463 0.757614,-4.29315 1.26269,-5.80838 0.505077,-1.51523 -1.515229,-10.85914 -3.282996,-15.15229 -1.767767,-4.29315 -2.882524,-19.50146 -2.12491,-20.51161 0.757615,-1.01015 -2.691261,-6.59663 -2.691261,-6.59663 0,0 0,-4.29314 0.252538,-6.06091 0.252538,-1.76777 -3.492206,-14.73387 -4.24982,-20.54225 -0.757614,-5.80837 -1.793148,-20.28227 -1.793148,-20.28227 m 20.350756,-14.87667 c 0,0 -3.672953,-10.406617 -1.627267,-21.814163 0.658155,-3.670129 4.423137,-15.643654 4.877447,-18.553478 0.800944,-5.129986 2.642677,-9.275201 2.285534,-14.989487 -0.357142,-5.714286 4.107143,-10 4.464286,-18.214285 0.357143,-8.214286 1.9157,-14.137782 1.9157,-14.137782 0,0 -0.844271,-9.0765054 -1.558557,-16.93364742 C 96.081432,-7.8903654 95.367147,-13.247509 95.367147,-13.247509 c 0,0 3.928571,-5.714286 1.785714,-7.142857 -2.142857,-1.428571 -9.642857,-2.142857 -10.357143,0 -0.714286,2.142857 2.244713,5.34184 2.9438,8.135063 1.663163,6.6452146 -0.917814,6.1307086 -0.400472,12.22208058 0.622765,7.33265102 -0.844271,10.45927042 -0.8876,15.68890542 0,0 -2.997642,4.877448 -4.783356,11.663162 -1.785715,6.785714 -1.158086,14.433647 -2.943801,16.933647 m 0.228414,-0.676062 c 0,0 -1.40319,1.411148 -3.170957,1.15861 -1.767767,-0.252538 -5.303301,0 -6.565991,-3.788072 -1.262691,-3.788072 2.525381,-9.343911 2.777919,-13.131983 0.252538,-3.788073 -0.505076,-10.101526 -3.535534,-12.374369 -3.030458,-2.272843 -7.576144,-3.030458 -12.626906,-1.262691 -2.860323,1.001113 -3.282996,6.313454 -4.545687,8.586297 -1.262691,2.272843 3.030458,11.869292 3.535534,14.142135 0.505076,2.272844 -2.535367,6.170132 -2.535367,6.170132 0,0 -6.428571,3.928571 -8.214285,1.428571 -1.785715,-2.5 -1.158086,-10.147933 -2.943801,-16.933647 C 41.341914,20.785699 38.344272,15.908251 38.344272,15.908251 38.300943,10.678616 36.833907,7.5519969 37.456672,0.21934592 37.974014,-5.8720255 35.393037,-5.3575194 37.0562,-12.002734 c 0.699087,-2.793223 3.658086,-5.992206 2.9438,-8.135063 -0.714286,-2.142857 -8.214286,-1.428571 -10.357143,0 -2.142857,1.428571 1.785714,7.142857 1.785714,7.142857 0,0 -0.714285,5.357143 -1.428571,13.21428592 C 29.285714,8.0764888 28.441443,17.152993 28.441443,17.152993 c 0,0 1.558557,5.923496 1.9157,14.137782 0.357143,8.214285 7.678571,19.107142 7.321429,24.821428 -0.357143,5.714286 3.892677,14.453773 3.892677,14.453773 3.580877,7.939067 3.301474,11.287665 3.806018,14.982052 2.045686,14.978972 -0.474438,18.809092 -0.474438,18.809092 0,0 -2.72896,16.13936 -2.476422,22.20028 0.252538,6.06091 0.757614,28.03173 1.262691,29.7995 0.505076,1.76776 -1.976715,6.46346 -1.515229,8.5863 l 1.26269,5.80837 c 0,0 -2.272843,15.15229 -1.767766,21.2132 0.505076,6.06092 1.515228,12.87945 1.26269,15.90991 -0.252538,3.03045 -1.415092,5.78224 -0.883883,6.31345 0,0 0.253541,7.2415 0.505076,8.71256 0.792878,4.63703 -0.13599,10.57566 4.419417,12.87945 4.483656,-2.10772 5.227624,-6.51527 5.020125,-10.64621 -0.179325,-3.57004 -0.222654,-9.17954 0.535714,-10.69326 0.758821,-1.51463 -0.757614,-4.29315 -1.26269,-5.80838 -0.505077,-1.51523 1.515229,-10.85914 3.282996,-15.15229 1.767767,-4.29315 4.311095,-20.03717 3.553481,-21.04732 -0.757615,-1.01015 1.26269,-6.06092 1.26269,-6.06092 0,0 0,-4.29314 -0.252538,-6.06091 -0.252538,-1.76777 4.502358,-17.25926 5.259972,-23.06764 0.757614,-5.80837 1.288073,-17.50435 1.288073,-17.50435"
         inkscape:connector-curvature="0" />
    </g>
    <path
       style="fill:#c24a4a;fill-rule:evenodd;stroke:#000000;stroke-width:1px;stroke-linecap:butt;stroke-linejoin:miter;stroke-opacity:1;fill-opacity:1"
       d="m 194.95944,56.351795 c 0,0 1.51523,3.030458 8.08122,2.525381 6.56599,-0.505076 9.09137,-1.010153 9.09137,-1.010153 0,0 39.39595,28.284272 41.41626,52.527927 2.0203,24.24366 9.59645,41.41626 14.64721,48.48732 5.05076,7.07107 26.26397,23.73859 26.26397,23.73859 0,0 -39.39595,-12.12184 -56.06347,-7.57615 -14.05528,3.83326 -28.28427,23.23351 -39.90102,16.66752 -11.61676,-6.56599 -20.20306,-18.18274 -34.85027,-18.18274 -14.64721,0 -23.73858,11.11167 -34.34518,15.15228 -10.60661,4.04061 -17.1726,-4.04061 -17.1726,-4.04061 0,0 26.76905,-23.23351 23.73859,-34.85026 -3.03046,-11.61675 9.09137,-31.31473 9.09137,-31.31473 6.96094,-7.73174 18.51326,-17.63195 24.24366,-24.748735 5.73041,-7.116783 5.05076,-13.637058 10.6066,-23.738581 5.55584,-10.101525 15.15229,-13.637059 15.15229,-13.637059 z"
       id="path6686"
       inkscape:connector-curvature="0"
       sodipodi:nodetypes="cscsscsssscsszsc" />
    <path
       style="fill:#c24a4a;fill-rule:evenodd;stroke:none;stroke-width:1px;stroke-linecap:butt;stroke-linejoin:miter;stroke-opacity:1;fill-opacity:1"
       d="m 212.13203,57.867025 c 0,0 39.39595,28.284272 41.41626,52.527925 2.0203,24.24366 9.59645,41.41626 14.64721,48.48732 5.05076,7.07107 26.26397,23.73859 26.26397,23.73859 0,0 -39.39595,-12.12184 -56.06347,-7.57615 -16.60862,4.19079 -9.61464,-30.6693 -22.22336,-43.94163 0.99641,-20.01362 2.86902,-38.615667 -4.04061,-73.236055 z"
       id="path6686-64"
       inkscape:connector-curvature="0"
       sodipodi:nodetypes="csscccc" />
    <path
       style="fill:#b92b2b;fill-rule:evenodd;stroke:none;stroke-width:1px;stroke-linecap:butt;stroke-linejoin:miter;stroke-opacity:1;fill-opacity:1"
       d="m 203.04066,58.877178 c 6.56599,-0.505076 9.09137,-1.010153 9.09137,-1.010153 0,0 11.32974,12.604698 9.59645,36.870561 -1.51523,21.213204 6.566,21.718284 11.61676,28.789344 5.05076,7.07107 0.50508,21.21321 0.50508,21.21321 0,0 -3.03046,17.67766 4.54568,30.30457 -14.05528,3.83326 -28.28427,23.23351 -39.90102,16.66752 -5.18515,-29.53199 5.46844,-96.960492 4.54568,-132.835052 z"
       id="path6686-46"
       inkscape:connector-curvature="0"
       sodipodi:nodetypes="ccsscccc" />
    <path
       style="fill:#c24a4a;fill-opacity:1;fill-rule:evenodd;stroke:none;stroke-width:1px;stroke-linecap:butt;stroke-linejoin:miter;stroke-opacity:1"
       d="m 203.04066,58.877178 c 9.08693,9.421584 8.57405,19.839045 9.09138,26.769035 0,0 -5.23176,23.132037 -5.05077,31.819807 0.50507,24.24366 -4.91354,22.98786 -6.06091,34.34518 -1.14737,11.35732 4.79822,21.46575 0.25253,41.16372 -13.11629,-5.44083 -16.92005,-18.94036 -42.4264,-20.45559 13.28633,-47.18431 6.09128,-81.85596 37.62818,-114.399766 6.56599,0.757614 0,0 6.56599,0.757614 z"
       id="path6686-4"
       inkscape:connector-curvature="0"
       sodipodi:nodetypes="ccszcccc" />
    <path
       style="fill:#b92b2b;fill-opacity:1;fill-rule:evenodd;stroke:none;stroke-width:1px;stroke-linecap:butt;stroke-linejoin:miter;stroke-opacity:1"
       d="m 194.95944,56.351797 c 0,0 0,0 5.55584,2.272843 -8.53776,20.84008 -10.83357,37.150082 -12.6269,42.67894 -3.78613,11.67267 -21.71828,20.70813 -16.66752,27.77919 5.05076,7.07107 -2.52538,34.85027 -2.52538,34.85027 l -4.54569,9.59644 c -15.29752,-0.33382 -19.92374,7.88086 -34.85026,15.15229 -10.60661,4.04061 -17.1726,-4.04061 -17.1726,-4.04061 0,0 26.76905,-23.23351 23.73859,-34.85026 -3.03046,-11.61675 9.09137,-31.31473 9.09137,-31.31473 6.96094,-7.73174 18.51326,-17.63195 24.24366,-24.748733 5.73041,-7.116783 5.05076,-13.637058 10.6066,-23.738581 5.55584,-10.101525 15.15229,-13.637059 15.15229,-13.637059 z"
       id="path6686-6"
       inkscape:connector-curvature="0"
       sodipodi:nodetypes="ccssccccsszsc" />
    <path
       style="fill:#c24a4a;fill-opacity:1;fill-rule:evenodd;stroke:#000000;stroke-width:1px;stroke-linecap:butt;stroke-linejoin:miter;stroke-opacity:1"
       d="m 389.2813,53.065115 c 0,0 1.51523,3.030459 8.08122,2.525382 6.56599,-0.505076 9.09137,-1.010153 9.09137,-1.010153 0,0 39.39595,28.284271 41.41626,52.527926 2.0203,24.24366 9.59645,41.41626 14.64721,48.48733 5.05076,7.07107 23.04968,15.16716 23.04968,15.16716 0,0 -32.96737,3.2353 -49.99204,5.28099 -14.46457,1.73807 -25.78427,6.09066 -39.90102,5.23895 -13.31974,-0.80362 -23.77449,-2.46845 -38.4217,-2.46845 -14.64721,0 -20.52429,3.96881 -31.48803,4.43799 -11.33981,0.48527 -19.31546,-1.89775 -19.31546,-1.89775 0,0 26.76905,-23.23351 23.73859,-34.85027 -3.03046,-11.61675 9.09137,-31.31473 9.09137,-31.31473 6.96094,-7.73174 18.51326,-17.631952 24.24366,-24.748735 5.73041,-7.116783 5.05076,-13.637058 10.6066,-23.738581 5.55584,-10.101524 15.15229,-13.637059 15.15229,-13.637059 z"
       id="path6686-2"
       inkscape:connector-curvature="0"
       sodipodi:nodetypes="cscsscsssscsszsc" />
    <path
       style="fill:#b92b2b;fill-opacity:1;fill-rule:evenodd;stroke:none;stroke-width:1px;stroke-linecap:butt;stroke-linejoin:miter;stroke-opacity:1"
       d="m 397.36252,55.590499 c 6.56599,-0.505076 9.09137,-1.010153 9.09137,-1.010153 0,0 11.32974,12.604697 9.59645,36.87056 -1.51523,21.213204 6.566,21.718284 11.61676,28.789344 5.05076,7.07107 0.50508,21.21321 0.50508,21.21321 0,0 1.25525,21.2491 8.83139,33.87601 -15.1267,-0.0953 -26.14141,7.87637 -43.82959,4.16752 -5.18515,-29.53199 5.1113,-88.031932 4.18854,-123.906491 z"
       id="path6686-46-2"
       inkscape:connector-curvature="0"
       sodipodi:nodetypes="ccsscccc" />
    <path
       style="fill:#b92b2b;fill-opacity:1;fill-rule:evenodd;stroke:none;stroke-width:1px;stroke-linecap:butt;stroke-linejoin:miter;stroke-opacity:1"
       d="m 389.2813,53.065117 5.55584,2.272844 c -8.53776,20.840079 -10.83357,37.150081 -12.6269,42.678937 -3.78613,11.672672 -10.73242,17.631472 -13.09609,25.993482 -2.80638,9.92821 -10.43039,10.32139 -12.88252,16.99313 -2.01016,5.46921 -0.97426,17.45359 -0.97426,17.45359 -3.15467,8.95189 -0.63803,13.95228 -15.56455,21.22371 -16.67804,5.46919 -33.24403,1.67368 -33.24403,1.67368 0,0 26.76905,-23.23351 23.73859,-34.85027 -3.03046,-11.61675 9.09137,-31.31473 9.09137,-31.31473 6.96094,-7.73174 18.51326,-17.631952 24.24366,-24.748733 5.73041,-7.116783 5.05076,-13.637058 10.6066,-23.738581 5.55584,-10.101524 15.15229,-13.637059 15.15229,-13.637059 z"
       id="path6686-6-3"
       inkscape:connector-curvature="0"
       sodipodi:nodetypes="ccssscccsszsc" />
  </g>
</svg>
